<?xml version="1.0" standalone="no"?>
<!DOCTYPE svg PUBLIC "-//W3C//DTD SVG 20010904//EN"
 "http://www.w3.org/TR/2001/REC-SVG-20010904/DTD/svg10.dtd">
<svg version="1.0" xmlns="http://www.w3.org/2000/svg"
 width="512.000000pt" height="512.000000pt" viewBox="0 0 512.000000 512.000000"
 preserveAspectRatio="xMidYMid meet">
<metadata>
Created by potrace 1.14, written by Peter Selinger 2001-2017
</metadata>
<g transform="translate(0.000000,512.000000) scale(0.100000,-0.100000)"
fill="#000000" stroke="none">
<path d="M4388 5115 c-2 -1 -43 -6 -92 -9 -103 -8 -133 -11 -276 -32 -807
-112 -1447 -429 -2030 -1006 -125 -123 -216 -220 -256 -270 -23 -29 -37 -32
-209 -44 -49 -3 -106 -7 -125 -9 -19 -2 -75 -6 -125 -10 -49 -3 -110 -8 -135
-10 -25 -2 -83 -7 -130 -10 -141 -10 -183 -15 -235 -30 -53 -15 -123 -56 -167
-97 -34 -32 -553 -817 -584 -882 -67 -144 29 -339 181 -370 36 -7 87 -15 310
-50 17 -2 59 -9 95 -15 36 -6 83 -13 105 -16 22 -4 51 -8 64 -10 13 -2 45 -7
70 -10 81 -11 77 -5 76 -108 0 -81 3 -97 25 -134 14 -24 246 -264 515 -534
559 -561 539 -546 676 -536 75 5 79 4 83 -16 5 -24 12 -68 21 -132 3 -22 10
-65 15 -95 5 -30 12 -73 15 -95 3 -23 7 -52 10 -65 3 -13 7 -42 10 -65 16
-110 45 -263 54 -289 20 -50 67 -101 123 -131 70 -39 179 -42 245 -7 66 35
835 547 865 576 46 44 86 110 101 167 17 59 24 122 42 369 3 41 7 102 10 135
3 33 7 89 10 125 5 64 11 142 20 250 4 53 7 57 67 110 126 109 376 369 491
510 388 475 603 943 726 1580 50 257 69 487 67 805 -1 251 -2 262 -25 307 -27
56 -77 103 -140 132 -42 19 -66 21 -303 22 -141 1 -258 1 -260 -1z"/>
<path d="M593 1683 c-22 -4 -538 -511 -569 -558 -59 -91 23 -228 131 -220 17
1 39 3 49 3 22 2 550 523 572 564 22 42 18 109 -9 149 -37 55 -98 77 -174 62z"/>
<path d="M1025 1224 c-40 -21 -988 -971 -1009 -1011 -42 -82 12 -191 103 -209
84 -17 69 -29 599 499 271 271 500 504 508 519 8 15 14 47 14 71 0 107 -120
181 -215 131z"/>
<path d="M1475 776 c-43 -20 -549 -534 -565 -573 -12 -33 -7 -90 11 -125 30
-55 119 -87 182 -65 38 13 555 531 573 573 19 45 18 83 -5 124 -37 71 -122 99
-196 66z"/>
</g>
</svg>
